<svg width="87" height="87" viewBox="0 0 87 87" fill="none" xmlns="http://www.w3.org/2000/svg">
<g clip-path="url(#clip0_2894_1068)">
<mask id="path-1-inside-1_2894_1068" fill="white">
<path d="M43.5 0C55.036 0.00301476 66.0986 4.58701 74.2558 12.7442C82.413 20.9014 86.997 31.964 87 43.5C86.997 55.036 82.413 66.0986 74.2558 74.2558C66.0986 82.413 55.036 86.997 43.5 87C31.964 86.997 20.9014 82.413 12.7442 74.2558C4.58701 66.0986 0.00301476 55.036 0 43.5C0.00301476 31.964 4.58701 20.9014 12.7442 12.7442C20.9014 4.58701 31.964 0.00301476 43.5 0Z"/>
</mask>
<path d="M43.5 0C55.036 0.00301476 66.0986 4.58701 74.2558 12.7442C82.413 20.9014 86.997 31.964 87 43.5C86.997 55.036 82.413 66.0986 74.2558 74.2558C66.0986 82.413 55.036 86.997 43.5 87C31.964 86.997 20.9014 82.413 12.7442 74.2558C4.58701 66.0986 0.00301476 55.036 0 43.5C0.00301476 31.964 4.58701 20.9014 12.7442 12.7442C20.9014 4.58701 31.964 0.00301476 43.5 0Z" stroke="#607B96" stroke-width="16" mask="url(#path-1-inside-1_2894_1068)"/>
<mask id="path-2-outside-2_2894_1068" maskUnits="userSpaceOnUse" x="18.2402" y="29.1001" width="25" height="29" fill="black">
<rect fill="white" x="18.2402" y="29.1001" width="25" height="29"/>
<path d="M23.7202 44.3301C23.8202 50.6601 27.8202 53.2701 32.5602 53.2701C35.0057 53.3554 37.44 52.9014 39.6902 51.9401L40.4902 55.3001C37.7882 56.4736 34.8656 57.0533 31.9202 57.0001C24.0002 57.0001 19.2402 51.6701 19.2402 44.0001C19.2402 36.3301 23.8202 30.1001 31.3802 30.1001C39.7502 30.1001 41.9802 37.4501 41.9802 42.1901C41.9898 42.9255 41.9194 43.6599 41.7702 44.3801L23.7202 44.3301ZM37.4602 41.0001C37.4602 38.0701 36.2302 33.4401 30.9602 33.4401C26.2202 33.4401 24.1402 37.7501 23.7702 41.0001H37.4602Z"/>
</mask>
<path d="M23.7202 44.3301C23.8202 50.6601 27.8202 53.2701 32.5602 53.2701C35.0057 53.3554 37.44 52.9014 39.6902 51.9401L40.4902 55.3001C37.7882 56.4736 34.8656 57.0533 31.9202 57.0001C24.0002 57.0001 19.2402 51.6701 19.2402 44.0001C19.2402 36.3301 23.8202 30.1001 31.3802 30.1001C39.7502 30.1001 41.9802 37.4501 41.9802 42.1901C41.9898 42.9255 41.9194 43.6599 41.7702 44.3801L23.7202 44.3301ZM37.4602 41.0001C37.4602 38.0701 36.2302 33.4401 30.9602 33.4401C26.2202 33.4401 24.1402 37.7501 23.7702 41.0001H37.4602Z" fill="#607B96"/>
<path d="M23.7202 44.3301C23.8202 50.6601 27.8202 53.2701 32.5602 53.2701C35.0057 53.3554 37.44 52.9014 39.6902 51.9401L40.4902 55.3001C37.7882 56.4736 34.8656 57.0533 31.9202 57.0001C24.0002 57.0001 19.2402 51.6701 19.2402 44.0001C19.2402 36.3301 23.8202 30.1001 31.3802 30.1001C39.7502 30.1001 41.9802 37.4501 41.9802 42.1901C41.9898 42.9255 41.9194 43.6599 41.7702 44.3801L23.7202 44.3301ZM37.4602 41.0001C37.4602 38.0701 36.2302 33.4401 30.9602 33.4401C26.2202 33.4401 24.1402 37.7501 23.7702 41.0001H37.4602Z" stroke="#607B96" stroke-width="2" mask="url(#path-2-outside-2_2894_1068)"/>
<mask id="path-3-outside-3_2894_1068" maskUnits="userSpaceOnUse" x="43.1699" y="29.6399" width="28" height="28" fill="black">
<rect fill="white" x="43.1699" y="29.6399" width="28" height="28"/>
<path d="M50.8099 30.6399L54.4799 36.1199C55.4799 37.5599 56.2399 38.8899 57.0899 40.2799H57.1999C58.0499 38.8399 58.9599 37.4599 59.8099 36.0699L63.3799 30.6399H68.4899L59.6999 43.0499L68.7599 56.3599H63.4799L59.6499 50.6099C58.6499 49.0599 57.7899 47.6099 56.8799 46.0799H56.7699C55.9199 47.6799 55.0199 49.0099 54.0599 50.6099L50.3299 56.3599H45.1699L54.3299 43.2099L45.5899 30.6399H50.8099Z"/>
</mask>
<path d="M50.8099 30.6399L54.4799 36.1199C55.4799 37.5599 56.2399 38.8899 57.0899 40.2799H57.1999C58.0499 38.8399 58.9599 37.4599 59.8099 36.0699L63.3799 30.6399H68.4899L59.6999 43.0499L68.7599 56.3599H63.4799L59.6499 50.6099C58.6499 49.0599 57.7899 47.6099 56.8799 46.0799H56.7699C55.9199 47.6799 55.0199 49.0099 54.0599 50.6099L50.3299 56.3599H45.1699L54.3299 43.2099L45.5899 30.6399H50.8099Z" fill="#607B96"/>
<path d="M50.8099 30.6399L54.4799 36.1199C55.4799 37.5599 56.2399 38.8899 57.0899 40.2799H57.1999C58.0499 38.8399 58.9599 37.4599 59.8099 36.0699L63.3799 30.6399H68.4899L59.6999 43.0499L68.7599 56.3599H63.4799L59.6499 50.6099C58.6499 49.0599 57.7899 47.6099 56.8799 46.0799H56.7699C55.9199 47.6799 55.0199 49.0099 54.0599 50.6099L50.3299 56.3599H45.1699L54.3299 43.2099L45.5899 30.6399H50.8099Z" stroke="#607B96" stroke-width="2" mask="url(#path-3-outside-3_2894_1068)"/>
</g>
<defs>
<clipPath id="clip0_2894_1068">
<rect width="87" height="87" fill="white"/>
</clipPath>
</defs>
</svg>
