<svg width="32" height="32" viewBox="0 0 32 32" fill="none" xmlns="http://www.w3.org/2000/svg">
<path d="M15.8213 23.1849C15.8213 23.1849 15.8213 12.8239 16.1653 12.8249C16.4313 12.8249 16.7773 26.1899 16.7773 26.1899C16.3013 26.1339 15.8213 23.9909 15.8213 23.1849ZM22.4893 12.9449C21.5703 8.92888 19.5573 5.47588 16.7813 2.81088L16.7743 2.80488C16.4363 2.28888 16.1273 1.69688 15.8793 1.07288L15.8553 1.00488C15.8563 1.02488 15.8563 1.04888 15.8563 1.07288C15.8563 1.63788 15.6033 2.14288 15.2043 2.48188L15.2013 2.48388C11.6273 5.51788 9.35334 9.98888 9.27834 14.9919V15.0049C9.27734 15.0669 9.27734 15.1399 9.27734 15.2129C9.27734 20.1699 11.6623 24.5699 15.3473 27.3279L15.3863 27.3559L15.4733 27.4189C15.634 28.6082 15.7713 29.8002 15.8853 30.9949H16.4863C16.6523 29.5039 16.8763 28.1989 17.1693 26.9189L17.1233 27.1579C17.5193 26.8829 17.8653 26.5979 18.1883 26.2889L18.1853 26.2919C20.9863 23.6949 22.7343 19.9949 22.7343 15.8879C22.7343 15.8269 22.7343 15.7669 22.7333 15.7059V15.7149C22.7303 14.7339 22.6413 13.7749 22.4723 12.8439L22.4873 12.9429L22.4893 12.9449Z" fill="#607B96"/>
</svg>
